<svg width="108" height="36" viewBox="0 0 108 36" fill="none" xmlns="http://www.w3.org/2000/svg">
<path d="M7.79825 26.288C6.58225 26.288 5.51025 26.024 4.58225 25.496C3.65425 24.968 2.91825 24.232 2.37425 23.288C1.84625 22.344 1.58225 21.264 1.58225 20.048C1.58225 18.832 1.84625 17.752 2.37425 16.808C2.91825 15.864 3.65425 15.128 4.58225 14.6C5.51025 14.072 6.58225 13.808 7.79825 13.808C9.31825 13.808 10.5983 14.208 11.6383 15.008C12.6783 15.792 13.3423 16.88 13.6302 18.272H10.3903C10.2303 17.696 9.91025 17.248 9.43025 16.928C8.96625 16.592 8.41425 16.424 7.77425 16.424C6.92625 16.424 6.20625 16.744 5.61425 17.384C5.02225 18.024 4.72625 18.912 4.72625 20.048C4.72625 21.184 5.02225 22.072 5.61425 22.712C6.20625 23.352 6.92625 23.672 7.77425 23.672C8.41425 23.672 8.96625 23.512 9.43025 23.192C9.91025 22.872 10.2303 22.416 10.3903 21.824H13.6302C13.3423 23.168 12.6783 24.248 11.6383 25.064C10.5983 25.88 9.31825 26.288 7.79825 26.288ZM16.3569 26V8.72H19.4289V26H16.3569ZM28.2798 26.288C27.1278 26.288 26.0878 26.024 25.1598 25.496C24.2478 24.968 23.5198 24.24 22.9758 23.312C22.4478 22.368 22.1838 21.28 22.1838 20.048C22.1838 18.816 22.4558 17.736 22.9998 16.808C23.5438 15.864 24.2718 15.128 25.1838 14.6C26.1118 14.072 27.1518 13.808 28.3038 13.808C29.4398 13.808 30.4638 14.072 31.3758 14.6C32.3038 15.128 33.0318 15.864 33.5598 16.808C34.1038 17.736 34.3758 18.816 34.3758 20.048C34.3758 21.28 34.1038 22.368 33.5598 23.312C33.0318 24.24 32.3038 24.968 31.3758 25.496C30.4478 26.024 29.4158 26.288 28.2798 26.288ZM28.2798 23.624C29.0798 23.624 29.7758 23.328 30.3678 22.736C30.9598 22.128 31.2558 21.232 31.2558 20.048C31.2558 18.864 30.9598 17.976 30.3678 17.384C29.7758 16.776 29.0878 16.472 28.3038 16.472C27.4878 16.472 26.7838 16.776 26.1918 17.384C25.6158 17.976 25.3278 18.864 25.3278 20.048C25.3278 21.232 25.6158 22.128 26.1918 22.736C26.7838 23.328 27.4798 23.624 28.2798 23.624ZM42.9545 26.288C41.7385 26.288 40.6665 26.024 39.7385 25.496C38.8105 24.968 38.0745 24.232 37.5305 23.288C37.0025 22.344 36.7385 21.264 36.7385 20.048C36.7385 18.832 37.0025 17.752 37.5305 16.808C38.0745 15.864 38.8105 15.128 39.7385 14.6C40.6665 14.072 41.7385 13.808 42.9545 13.808C44.4745 13.808 45.7545 14.208 46.7945 15.008C47.8345 15.792 48.4985 16.88 48.7865 18.272H45.5465C45.3865 17.696 45.0665 17.248 44.5865 16.928C44.1225 16.592 43.5705 16.424 42.9305 16.424C42.0825 16.424 41.3625 16.744 40.7705 17.384C40.1785 18.024 39.8825 18.912 39.8825 20.048C39.8825 21.184 40.1785 22.072 40.7705 22.712C41.3625 23.352 42.0825 23.672 42.9305 23.672C43.5705 23.672 44.1225 23.512 44.5865 23.192C45.0665 22.872 45.3865 22.416 45.5465 21.824H48.7865C48.4985 23.168 47.8345 24.248 46.7945 25.064C45.7545 25.88 44.4745 26.288 42.9545 26.288ZM51.5131 26V8.72H54.5851V18.92L58.8091 14.096H62.4571L57.5851 19.52L63.2491 26H59.4091L54.5851 20.024V26H51.5131Z" fill="white"/>
<rect x="69" y="0.5" width="39" height="35" rx="4" fill="#6839BB"/>
<path d="M81.216 13.748C80.656 13.748 80.192 13.58 79.824 13.244C79.472 12.908 79.296 12.484 79.296 11.972C79.296 11.46 79.472 11.044 79.824 10.724C80.192 10.388 80.656 10.22 81.216 10.22C81.776 10.22 82.232 10.388 82.584 10.724C82.952 11.044 83.136 11.46 83.136 11.972C83.136 12.484 82.952 12.908 82.584 13.244C82.232 13.58 81.776 13.748 81.216 13.748ZM79.68 27.5V15.596H82.752V27.5H79.68ZM85.9584 27.5V15.596H88.6704L88.9104 17.612C89.2784 16.908 89.8064 16.348 90.4944 15.932C91.1984 15.516 92.0224 15.308 92.9664 15.308C94.4384 15.308 95.5824 15.772 96.3984 16.7C97.2144 17.628 97.6224 18.988 97.6224 20.78V27.5H94.5504V21.068C94.5504 20.044 94.3424 19.26 93.9264 18.716C93.5104 18.172 92.8624 17.9 91.9824 17.9C91.1184 17.9 90.4064 18.204 89.8464 18.812C89.3024 19.42 89.0304 20.268 89.0304 21.356V27.5H85.9584Z" fill="white"/>
</svg>
